# xmcd
#
# Track frame offsets:
#	150
#	12050
#	31522
#	46247
#	61757
#	77697
#	91277
#	106000
#	117317
#	129725
#	141867
#	156350
#
# Disc length: 2255 seconds
#
# Revision: 0
# Processed by: cddbd v1.5.1PL0 Copyright (c) Steve Scherf et al.
# Submitted via: EasyCDDAExtractor 8.0.2.1
#
DISCID=8a08cd0c
DTITLE=Tina Turner - Tina Turner Sings Country
DYEAR=1900
DGENRE=
TTITLE0=Stand By Your Man
TTITLE1=Lovin' Him Was Easier
TTITLE2=Good Hearted Woman
TTITLE3=If This Is Our Last Time
TTITLE4=Lay It Down
TTITLE5=Freedom To Stay
TTITLE6=We Had It All
TTITLE7=Soul Deep
TTITLE8=If It's Allright With You
TTITLE9=You Ain't Woman Enough To Take My Man
TTITLE10=Medley: Lay It Dow ,Lovin' Him Was Easier
TTITLE11=Medley: Stand By Your Man, We Had It All Soul Deep,You Ain't Woman En
TTITLE11=ough To Take My Man
EXTD=
EXTT0=
EXTT1=
EXTT2=
EXTT3=
EXTT4=
EXTT5=
EXTT6=
EXTT7=
EXTT8=
EXTT9=
EXTT10=
EXTT11=
PLAYORDER=
